<svg width="183" height="228" viewBox="0 0 183 228" fill="none" xmlns="http://www.w3.org/2000/svg">
<path fill-rule="evenodd" clip-rule="evenodd" d="M47.4353 209.692C42.6658 206.376 37.6391 202.628 32.3328 199.329C30.478 198.175 28.3607 197.722 28.4793 195.046C28.504 194.496 28.5114 193.675 28.8489 193.453C34.5744 189.681 38.0639 183.795 42.8091 179.11C45.9872 175.972 49.6531 173.457 54.3311 173.011C55.2648 172.922 56.2811 173.552 57.2584 173.851C56.9457 174.789 56.8818 175.939 56.2815 176.63C51.9152 181.653 47.4902 186.63 42.9724 191.52C41.5552 193.054 42.0656 193.775 43.5239 194.895C46.8884 197.481 50.049 200.326 53.3843 202.95C54.8093 204.073 56.4594 204.912 58.0169 205.864C58.1471 205.944 58.4162 205.829 58.5174 205.918C59.5633 206.844 61.6057 208.174 61.4256 208.663C60.9072 210.075 59.7131 211.513 58.3878 212.291C54.2923 214.696 51.2147 211.448 47.4353 209.692Z" fill="#253A57"/>
<path fill-rule="evenodd" clip-rule="evenodd" d="M109.974 145.197C110.239 145.229 110.506 145.26 110.771 145.292L110.914 137.295C110.605 137.286 110.296 137.278 109.987 137.269C109.983 139.911 109.978 142.555 109.974 145.197ZM132.869 95.3015C133.078 95.3087 133.287 95.316 133.496 95.3232C133.991 91.1303 134.485 86.9368 134.979 82.7426C134.675 82.7047 134.37 82.6676 134.067 82.6303C133.668 86.8538 133.269 91.0779 132.869 95.3015ZM94.3157 115.963C91.5212 114.973 88.7439 113.929 85.9256 113.012C84.185 112.445 83.209 113.191 82.6517 114.947C80.9085 120.448 83.1825 126.577 88.1594 130.027C93.5838 133.789 98.976 132.563 104.359 130.321C104.781 130.146 105.036 128.743 104.823 128.078C103.067 122.598 99.0959 119.015 94.3157 115.963ZM123.05 111.362C131.281 98.2282 132.642 83.9755 129.966 68.9496C126.92 51.8439 120.234 36.0805 111.956 20.8753C109.449 16.2705 106.822 11.7263 104.429 7.06589C103.786 5.81601 103.365 4.13639 103.659 2.8463C103.862 1.95598 105.468 1.39615 106.448 0.689527C106.848 1.31207 107.28 1.91914 107.642 2.56192C108.616 4.29492 109.425 6.13573 110.544 7.76853C114.187 13.0839 118.029 18.265 121.616 23.6153C124.033 27.2216 126.304 30.9447 128.341 34.77C129.628 37.1862 130.236 39.9448 131.377 42.4488C133.184 46.4175 135.576 50.1708 137.009 54.2546C139.241 60.611 141.482 67.0704 142.64 73.6611C145.201 88.2308 142.681 101.884 134.39 114.365C130.532 120.173 126.945 126.068 121.292 130.4C120.674 130.874 120.411 132.274 120.548 133.164C121.932 142.132 120.452 150.665 116.493 158.641C113.531 164.61 110.587 170.779 106.45 175.913C102.981 180.221 98.0506 183.54 93.3056 186.598C89.0864 189.316 84.3502 191.365 79.6332 193.19C72.913 195.787 65.7978 196.29 58.6412 195.21C57.6137 195.055 56.3902 193.595 55.9791 192.482C55.5213 191.245 56.548 190.441 57.7784 189.561C61.6302 186.805 66.0406 187.332 70.2708 187.064C78.2854 186.558 84.8987 182.999 90.3737 177.718C99.7156 168.708 104.615 157.207 106.815 144.571C108.002 137.745 107.736 137.665 101.265 139.403C92.7498 141.691 84.5825 140.962 77.0604 136.068C68.3298 130.386 66.2608 119.346 72.0575 110.835C73.8777 108.163 76.7067 107.262 79.5434 106.466C85.9875 104.658 92.3794 105.259 98.58 107.761C104.995 110.348 110.969 113.592 114.938 119.596C115.897 121.045 116.859 120.738 117.735 119.373C119.467 116.677 121.274 114.03 123.05 111.362Z" fill="#253A57"/>
</svg>
