<svg width="120" height="124" viewBox="0 0 120 124" fill="none" xmlns="http://www.w3.org/2000/svg">
<path fill-rule="evenodd" clip-rule="evenodd" d="M118.935 51.5603C118.949 51.5603 118.963 51.5603 118.978 51.5599L118.978 48.9148L118.935 48.9148L118.935 51.5603ZM44.6403 53.8535C44.3749 52.9954 43.9053 52.2546 43.3621 51.5557C43.6468 52.4029 44.0861 53.1611 44.6403 53.8535ZM35.3499 5.31194C35.9265 5.24306 36.5586 5.68524 37.151 5.09117C36.4627 4.79574 35.9063 5.05496 35.3499 5.31194ZM78.1954 90.3327C77.7226 89.3772 77.2119 88.4672 76.4842 87.7049C76.9389 88.6633 77.508 89.5467 78.1954 90.3327ZM111.882 25.0063C112.153 26.0964 112.425 27.1868 112.697 28.2769C112.671 27.1102 112.472 25.9903 111.882 25.0063ZM63.6946 110.43C64.5272 111.296 65.9063 112.002 66.6354 112.015C65.5863 111.449 64.6405 110.94 63.6946 110.43ZM24.7014 86.1796C23.9727 85.3888 23.2771 84.574 22.3511 84.0299C22.8756 85.0447 23.7821 85.6279 24.7014 86.1796ZM58.6563 112.484C59.1079 113.287 59.7685 113.816 60.5152 114.241C60.6326 114.308 60.7525 114.442 60.8826 114.285C61.0107 114.13 60.8911 114.01 60.7765 113.93C60.073 113.443 59.3636 112.965 58.6563 112.484ZM58.7311 43.2475C58.4496 42.1612 57.9247 41.2362 57.1903 40.4357C57.3904 41.5579 58.1106 42.3826 58.7311 43.2475ZM29.8704 40.207C29.7899 40.2406 29.7097 40.2743 29.6292 40.3079L31.0514 43.7839C31.1198 43.7557 31.1883 43.7268 31.2565 43.6983C30.6884 42.5791 30.5893 41.2637 29.8704 40.207ZM67.5841 114.781C66.2055 114.149 64.827 113.517 63.4481 112.885C64.6979 113.804 66.0471 114.496 67.5841 114.781ZM55.6802 96.3917C56.8914 97.261 58.1027 98.1306 59.314 98.9999C58.3375 97.8083 57.1073 96.9806 55.6802 96.3917ZM67.2856 86.6901C67.2152 86.7452 67.1451 86.8003 67.0747 86.8554C68.0471 88.1355 69.0375 89.3996 70.299 90.4288C69.2944 89.1824 68.2901 87.9362 67.2856 86.6901ZM55.1673 46.2281C55.047 45.2101 53.0461 42.0625 52.2259 41.413C53.2566 43.1007 54.212 44.6644 55.1673 46.2281ZM49.4994 43.5893C50.5428 45.3257 51.5861 47.0621 52.6292 48.7988C52.6908 48.7604 52.7523 48.7219 52.8142 48.6835C51.9251 46.849 50.8438 45.1325 49.4994 43.5893ZM82.5879 88.0779C82.6536 88.0369 82.7195 87.9958 82.7852 87.9548C82.2783 86.3364 81.199 85.0742 80.2181 83.7502C80.1546 83.7896 80.0915 83.8294 80.0281 83.8688C80.8815 85.2716 81.7349 86.6747 82.5879 88.0779ZM18.6077 63.9579C19.3194 66.0973 21.848 70.0318 22.8343 70.5323C22.0901 69.3679 21.4399 68.2705 20.7096 67.231C19.961 66.1649 19.3197 65.0326 18.6077 63.9579ZM4.17705 64.4174C3.57646 63.1225 3.05034 61.8126 2.63627 60.4655C2.22788 59.1371 1.91448 57.7794 1.55911 56.4346C1.72638 59.4367 2.91527 63.0274 4.17705 64.4174ZM72.7692 90.6003C71.2637 88.5976 69.8375 86.5267 68.0155 84.7964C69.4515 86.8587 70.9314 88.8834 72.7692 90.6003ZM22.7323 77.9957C24.1974 79.9295 25.5182 82.0058 27.7514 83.1821C26.0538 81.4778 24.4114 79.7186 22.7323 77.9957ZM14.7526 18.1223C16.4847 16.6079 18.1308 15.0125 19.4636 13.1127C17.589 14.4822 16.0902 16.2241 14.7526 18.1223ZM53.7048 55.9578C54.2167 57.9044 57.0407 62.4839 58.2886 63.384C56.7421 60.8786 55.2727 58.4975 53.7048 55.9578ZM63.5939 106.706C63.2714 105.458 59.6258 102.515 58.1311 102.284C59.8512 104.058 61.831 105.248 63.5939 106.706ZM37.5951 86.08C34.9904 83.8825 32.8516 81.1724 30.1323 79.1188C32.1954 81.919 34.7294 84.1927 37.5951 86.08ZM69.2331 82.8005C69.117 82.894 69.0008 82.9876 68.885 83.0808C70.8585 85.7461 72.831 88.4121 75.1791 90.7752C73.5348 87.8481 71.2984 85.3924 69.2331 82.8005ZM83.3435 96.1644C81.1652 92.7778 79.199 89.2436 76.3273 86.0486C78.0782 89.8979 81.9624 95.5338 83.3435 96.1644ZM119.644 52.6266C119.721 45.8012 119.368 38.98 118.731 32.17C118.8 32.1643 118.869 32.1585 118.939 32.1527C119.07 33.5514 119.19 34.9513 119.334 36.3487C119.779 40.6677 119.877 45.0044 119.988 49.34C120.07 52.551 119.73 55.7184 119.058 58.8589C118.26 62.5899 117.999 66.3966 117.593 70.1834C116.814 77.4567 115.688 84.6718 113.745 91.731C113.592 92.2873 113.503 92.9298 113.246 93.3787C112.611 94.4909 112.343 95.7745 111.537 96.8136C111.108 97.3664 111.03 98.1613 110.508 98.7343C109.089 100.289 108.239 102.217 107.214 104.036C105.633 106.841 104.019 109.698 101.505 111.736C96.9896 115.393 92.1716 118.63 86.6185 120.449C80.8717 122.331 75.0664 122.562 69.1867 120.803C66.654 120.044 64.0907 119.466 61.8215 118.023C60.6449 117.275 59.5741 116.385 58.5092 115.488C57.2336 114.413 55.8165 113.531 54.6939 112.242C53.1405 110.459 51.6101 108.673 50.2265 106.742C48.7735 104.713 46.5636 103.994 44.2196 103.533C41.3233 102.963 38.3702 102.718 35.5203 101.876C27.551 99.5225 21.29 94.8629 16.5516 87.925C14.1599 84.4237 12.1382 80.7123 9.97249 77.0838C7.93936 73.677 6.16725 70.1033 4.11361 66.717C-0.52766 59.0653 -0.582261 50.8406 0.758109 42.4047C1.35302 38.6596 2.6552 35.1112 4.06374 31.5993C5.602 27.7639 6.98024 23.8659 9.21472 20.3559C13.2346 14.0416 18.3903 9.08273 25.3004 6.13705C28.6278 4.71854 31.9578 3.30449 35.5168 2.61236C39.0172 1.93146 42.5283 1.77413 46.087 2.36596C50.3802 3.07987 54.5424 4.3808 58.8245 5.12771C59.6504 5.27158 60.4735 5.32509 61.3042 5.3206C63.498 5.30938 65.6943 5.60738 67.883 5.38084C70.5299 5.10656 73.1624 4.68136 75.81 4.41348C79.8639 4.00366 83.91 4.10812 87.9674 4.5628C91.7865 4.99057 95.5252 5.75639 99.2083 6.81796C101.405 7.45144 103.543 8.31435 105.516 9.46435C106.447 10.0062 107.71 10.2455 108.16 11.4859C111.594 13.5805 113.132 17.186 115.081 20.4607C115.935 21.8962 116.469 23.4875 117.169 24.9938C117.739 26.2207 117.705 27.4985 117.956 28.7395C118.642 32.1252 118.825 35.5832 119.09 39.0239C119.438 43.5467 119.547 48.0804 119.644 52.6266Z" fill="#DFE6E7"/>
<path d="M86.3125 64.6875C86.3114 69.8646 84.6097 74.898 81.4691 79.0137C78.3286 83.1294 73.9231 86.0996 68.93 87.4675C63.9369 88.8355 58.6327 88.5255 53.833 86.5851C49.0333 84.6448 45.0038 81.1816 42.3642 76.728C39.7245 72.2744 38.6208 67.0771 39.2228 61.9351C39.8248 56.7932 42.0991 51.9913 45.6961 48.2678C49.293 44.5444 54.0135 42.1056 59.1316 41.3263C64.2497 40.5471 69.4821 41.4706 74.0242 43.9549" stroke="#2A585C" stroke-width="2" stroke-linecap="round" stroke-linejoin="round"/>
<path d="M62.6875 74.8125C68.2794 74.8125 72.8125 70.2794 72.8125 64.6875C72.8125 59.0956 68.2794 54.5625 62.6875 54.5625C57.0956 54.5625 52.5625 59.0956 52.5625 64.6875C52.5625 70.2794 57.0956 74.8125 62.6875 74.8125Z" fill="#2A585C" stroke="#2A585C" stroke-width="2" stroke-linecap="round" stroke-linejoin="round"/>
<path d="M79.5625 54.5625C83.2904 54.5625 86.3125 51.5404 86.3125 47.8125C86.3125 44.0846 83.2904 41.0625 79.5625 41.0625C75.8346 41.0625 72.8125 44.0846 72.8125 47.8125C72.8125 51.5404 75.8346 54.5625 79.5625 54.5625Z" stroke="#2A585C" stroke-width="2" stroke-linecap="round" stroke-linejoin="round"/>
</svg>
