<svg width="120" height="124" viewBox="0 0 120 124" fill="none" xmlns="http://www.w3.org/2000/svg">
<path fill-rule="evenodd" clip-rule="evenodd" d="M70.4397 120.935C70.4397 120.949 70.4397 120.963 70.44 120.978H73.0852V120.935H70.4397ZM68.1465 46.6403C69.0046 46.3749 69.7454 45.9053 70.4443 45.3621C69.5971 45.6468 68.8389 46.0861 68.1465 46.6403ZM116.688 37.3499C116.757 37.9265 116.315 38.5587 116.909 39.151C117.204 38.4627 116.945 37.9063 116.688 37.3499ZM31.6673 80.1954C32.6228 79.7226 33.5328 79.2119 34.2951 78.4842C33.3367 78.9389 32.4533 79.508 31.6673 80.1954ZM96.9937 113.882C95.9036 114.153 94.8132 114.425 93.7231 114.697C94.8898 114.671 96.0097 114.472 96.9937 113.882ZM11.5695 65.6946C10.7041 66.5272 9.99849 67.9063 9.98535 68.6354C10.5506 67.5863 11.0601 66.6405 11.5695 65.6946ZM35.8204 26.7014C36.6112 25.9727 37.426 25.2771 37.9701 24.3511C36.9553 24.8756 36.3721 25.7821 35.8204 26.7014ZM9.51594 60.6563C8.71263 61.1079 8.18361 61.7685 7.75872 62.5152C7.69207 62.6326 7.55814 62.7525 7.71547 62.8826C7.87023 63.0107 7.99007 62.8911 8.06986 62.7765C8.55658 62.073 9.03466 61.3636 9.51594 60.6563ZM78.7525 60.7311C79.8388 60.4496 80.7638 59.9247 81.5643 59.1903C80.4421 59.3904 79.6174 60.1106 78.7525 60.7311ZM81.793 31.8704C81.7594 31.7899 81.7257 31.7097 81.6921 31.6292L78.2161 33.0514C78.2443 33.1198 78.2732 33.1883 78.3017 33.2565C79.4209 32.6884 80.7363 32.5893 81.793 31.8704ZM7.21851 69.5841C7.85071 68.2055 8.48323 66.827 9.1151 65.4481C8.19612 66.6979 7.504 68.0471 7.21851 69.5841ZM25.6083 57.6802C24.739 58.8914 23.8694 60.1027 23.0001 61.314C24.1917 60.3375 25.0194 59.1073 25.6083 57.6802ZM35.3099 69.2856C35.2548 69.2152 35.1997 69.1451 35.1446 69.0747C33.8645 70.0471 32.6004 71.0375 31.5712 72.299C32.8176 71.2944 34.0638 70.2901 35.3099 69.2856ZM75.7719 57.1673C76.7899 57.0471 79.9375 55.0461 80.587 54.2259C78.8993 55.2566 77.3356 56.212 75.7719 57.1673ZM78.4107 51.4994C76.6743 52.5428 74.9379 53.5862 73.2012 54.6292C73.2396 54.6908 73.2781 54.7523 73.3165 54.8142C75.151 53.9251 76.8675 52.8439 78.4107 51.4994ZM33.9221 84.5879C33.9631 84.6536 34.0041 84.7195 34.0452 84.7852C35.6636 84.2783 36.9258 83.199 38.2498 82.2181C38.2104 82.1546 38.1706 82.0915 38.1312 82.0281C36.7284 82.8815 35.3253 83.7349 33.9221 84.5879ZM58.0421 20.6077C55.9027 21.3194 51.9682 23.848 51.4677 24.8343C52.6321 24.0901 53.7295 23.4399 54.769 22.7096C55.8351 21.961 56.9674 21.3197 58.0421 20.6077ZM57.5826 6.17705C58.8775 5.57646 60.1874 5.05035 61.5345 4.63627C62.8629 4.22788 64.2206 3.91449 65.5654 3.55912C62.5633 3.72639 58.9726 4.91527 57.5826 6.17705ZM31.3997 74.7692C33.4024 73.2637 35.4733 71.8375 37.2036 70.0155C35.1413 71.4515 33.1166 72.9314 31.3997 74.7692ZM44.0043 24.7323C42.0705 26.1974 39.9942 27.5182 38.8179 29.7514C40.5222 28.0538 42.2813 26.4114 44.0043 24.7323ZM103.878 16.7526C105.392 18.4847 106.987 20.1309 108.887 21.4636C107.518 19.589 105.776 18.0902 103.878 16.7526ZM66.0422 55.7048C64.0956 56.2167 59.5161 59.0407 58.616 60.2886C61.1214 58.7421 63.5025 57.2727 66.0422 55.7048ZM15.2939 65.5939C16.5416 65.2714 19.4854 61.6258 19.7164 60.1311C17.9419 61.8512 16.7521 63.831 15.2939 65.5939ZM35.92 39.5951C38.1175 36.9904 40.8276 34.8516 42.8812 32.1323C40.081 34.1954 37.8073 36.7294 35.92 39.5951ZM39.1995 71.2331C39.106 71.117 39.0124 71.0008 38.9192 70.885C36.2539 72.8585 33.5879 74.831 31.2248 77.1791C34.1519 75.5348 36.6076 73.2984 39.1995 71.2331ZM25.8356 85.3435C29.2221 83.1652 32.7564 81.199 35.9514 78.3273C32.1021 80.0782 26.4662 83.9624 25.8356 85.3435ZM69.3734 121.644C76.1988 121.721 83.02 121.368 89.83 120.731C89.8357 120.8 89.8415 120.869 89.8473 120.939C88.4486 121.07 87.0487 121.19 85.6513 121.334C81.3323 121.779 76.9956 121.877 72.66 121.988C69.449 122.07 66.2816 121.73 63.1411 121.058C59.41 120.26 55.6034 119.999 51.8166 119.593C44.5433 118.814 37.3282 117.688 30.2689 115.745C29.7127 115.592 29.0702 115.503 28.6213 115.246C27.5091 114.611 26.2255 114.343 25.1864 113.537C24.6336 113.108 23.8386 113.03 23.2657 112.508C21.7113 111.089 19.783 110.239 17.964 109.214C15.1586 107.633 12.3017 106.019 10.2645 103.505C6.6068 98.9896 3.37019 94.1716 1.55145 88.6185C-0.33073 82.8717 -0.562077 77.0664 1.19738 71.1867C1.95551 68.654 2.53355 66.0907 3.97675 63.8215C4.72527 62.6449 5.61477 61.5741 6.51164 60.5092C7.58699 59.2336 8.46944 57.8165 9.75787 56.6939C11.5414 55.1405 13.3274 53.6101 15.2583 52.2265C17.2866 50.7735 18.0059 48.5636 18.4674 46.2196C19.0371 43.3233 19.2822 40.3702 20.124 37.5203C22.4775 29.551 27.1371 23.29 34.075 18.5516C37.5763 16.1599 41.2877 14.1382 44.9162 11.9725C48.323 9.93937 51.8967 8.16725 55.283 6.11361C62.9347 1.47234 71.1594 1.41774 79.5953 2.75811C83.3404 3.35303 86.8888 4.65521 90.4007 6.06375C94.2361 7.602 98.1341 8.98025 101.644 11.2147C107.958 15.2346 112.917 20.3903 115.863 27.3004C117.281 30.6278 118.696 33.9578 119.388 37.5168C120.069 41.0172 120.226 44.5283 119.634 48.0871C118.92 52.3802 117.619 56.5424 116.872 60.8245C116.728 61.6505 116.675 62.4735 116.679 63.3042C116.691 65.498 116.393 67.6943 116.619 69.883C116.893 72.53 117.319 75.1624 117.587 77.81C117.996 81.8639 117.892 85.91 117.437 89.9674C117.009 93.7865 116.244 97.5252 115.182 101.208C114.549 103.405 113.686 105.543 112.536 107.516C111.994 108.447 111.754 109.71 110.514 110.16C108.419 113.594 104.814 115.132 101.539 117.081C100.104 117.935 98.5125 118.469 97.0062 119.169C95.7793 119.739 94.5015 119.705 93.2605 119.956C89.8748 120.642 86.4168 120.825 82.9761 121.09C78.4533 121.438 73.9196 121.547 69.3734 121.644Z" fill="#E5EBF5"/>
<path d="M42.4375 88.3125C46.1654 88.3125 49.1875 85.2904 49.1875 81.5625C49.1875 77.8346 46.1654 74.8125 42.4375 74.8125C38.7096 74.8125 35.6875 77.8346 35.6875 81.5625C35.6875 85.2904 38.7096 88.3125 42.4375 88.3125Z" stroke="#5376BC" stroke-width="2" stroke-linecap="round" stroke-linejoin="round"/>
<path d="M72.8125 37.6875V57.9375L86.3125 47.8125L72.8125 37.6875Z" fill="#5376BC" stroke="#5376BC" stroke-width="2" stroke-linecap="round" stroke-linejoin="round"/>
<path d="M66.0625 47.8125H59.3125V81.5625H49.1875" stroke="#5376BC" stroke-width="2" stroke-linecap="round" stroke-linejoin="round"/>
</svg>
