<svg width="120" height="124" viewBox="0 0 120 124" fill="none" xmlns="http://www.w3.org/2000/svg">
<path fill-rule="evenodd" clip-rule="evenodd" d="M1.06524 72.4397C1.05103 72.4397 1.03651 72.4397 1.02231 72.44L1.02231 75.0852L1.06524 75.0852L1.06524 72.4397ZM75.3597 70.1465C75.6251 71.0046 76.0947 71.7454 76.6379 72.4443C76.3532 71.5971 75.9139 70.8389 75.3597 70.1465ZM84.6501 118.688C84.0735 118.757 83.4413 118.315 82.849 118.909C83.5373 119.204 84.0937 118.945 84.6501 118.688ZM41.8046 33.6673C42.2774 34.6228 42.7881 35.5328 43.5158 36.2951C43.0611 35.3367 42.492 34.4533 41.8046 33.6673ZM8.11833 98.9937C7.84659 97.9036 7.57486 96.8132 7.30312 95.7231C7.32932 96.8898 7.52752 98.0097 8.11833 98.9937ZM56.3054 13.5695C55.4728 12.7041 54.0937 11.9985 53.3646 11.9853C54.4137 12.5506 55.3595 13.0601 56.3054 13.5695ZM95.2986 37.8204C96.0273 38.6112 96.7229 39.426 97.6489 39.9701C97.1244 38.9553 96.2179 38.3721 95.2986 37.8204ZM61.3437 11.5159C60.8921 10.7126 60.2315 10.1836 59.4848 9.75872C59.3674 9.69207 59.2475 9.55813 59.1174 9.71546C58.9893 9.87023 59.1089 9.99007 59.2235 10.0699C59.927 10.5566 60.6364 11.0347 61.3437 11.5159ZM61.2689 80.7525C61.5504 81.8388 62.0753 82.7638 62.8097 83.5643C62.6096 82.4421 61.8894 81.6174 61.2689 80.7525ZM90.1296 83.793C90.2101 83.7594 90.2903 83.7257 90.3708 83.6921L88.9486 80.2161C88.8802 80.2443 88.8117 80.2732 88.7435 80.3017C89.3116 81.4209 89.4107 82.7363 90.1296 83.793ZM52.4159 9.2185C53.7945 9.8507 55.173 10.4832 56.5519 11.1151C55.3021 10.1961 53.9529 9.504 52.4159 9.2185ZM64.3198 27.6083C63.1086 26.739 61.8973 25.8694 60.686 25.0001C61.6625 26.1917 62.8927 27.0194 64.3198 27.6083ZM52.7144 37.3099C52.7848 37.2548 52.8549 37.1997 52.9253 37.1446C51.9529 35.8644 50.9625 34.6004 49.701 33.5712C50.7056 34.8176 51.7099 36.0638 52.7144 37.3099ZM64.8327 77.7719C64.9529 78.7899 66.9539 81.9375 67.7741 82.587C66.7434 80.8993 65.788 79.3356 64.8327 77.7719ZM70.5006 80.4106C69.4572 78.6743 68.4138 76.9379 67.3708 75.2012C67.3092 75.2396 67.2477 75.2781 67.1858 75.3165C68.0749 77.151 69.1561 78.8675 70.5006 80.4106ZM37.4121 35.9221C37.3464 35.9631 37.2805 36.0041 37.2148 36.0452C37.7217 37.6636 38.801 38.9258 39.7819 40.2498C39.8454 40.2104 39.9085 40.1706 39.9719 40.1312C39.1185 38.7284 38.2651 37.3253 37.4121 35.9221ZM101.392 60.0421C100.681 57.9027 98.152 53.9682 97.1657 53.4677C97.9099 54.6321 98.5601 55.7295 99.2904 56.769C100.039 57.8351 100.68 58.9674 101.392 60.0421ZM115.823 59.5826C116.424 60.8775 116.95 62.1874 117.364 63.5345C117.772 64.8629 118.086 66.2206 118.441 67.5654C118.274 64.5633 117.085 60.9726 115.823 59.5826ZM47.2308 33.3997C48.7363 35.4024 50.1625 37.4733 51.9845 39.2036C50.5485 37.1413 49.0686 35.1166 47.2308 33.3997ZM97.2676 46.0043C95.8026 44.0705 94.4818 41.9942 92.2486 40.8179C93.9462 42.5222 95.5886 44.2813 97.2676 46.0043ZM105.247 105.878C103.515 107.392 101.869 108.987 100.536 110.887C102.411 109.518 103.91 107.776 105.247 105.878ZM66.2952 68.0422C65.7833 66.0956 62.9593 61.5161 61.7114 60.616C63.2579 63.1214 64.7273 65.5025 66.2952 68.0422ZM56.4061 17.2939C56.7286 18.5416 60.3742 21.4854 61.8689 21.7164C60.1488 19.9419 58.169 18.7521 56.4061 17.2939ZM82.4049 37.92C85.0096 40.1175 87.1484 42.8276 89.8677 44.8812C87.8046 42.081 85.2706 39.8073 82.4049 37.92ZM50.7669 41.1995C50.883 41.106 50.9992 41.0124 51.115 40.9192C49.1415 38.2539 47.169 35.5879 44.8209 33.2248C46.4652 36.1519 48.7016 38.6076 50.7669 41.1995ZM36.6565 27.8356C38.8348 31.2221 40.801 34.7564 43.6727 37.9514C41.9218 34.1021 38.0376 28.4662 36.6565 27.8356ZM0.355748 71.3734C0.279057 78.1987 0.632221 85.02 1.26911 91.83C1.19999 91.8357 1.13056 91.8415 1.06144 91.8473C0.930149 90.4486 0.80991 89.0487 0.665676 87.6513C0.220677 83.3323 0.123143 78.9956 0.0120513 74.66C-0.0700027 71.449 0.269589 68.2816 0.94151 65.1411C1.73999 61.41 2.001 57.6034 2.40687 53.8166C3.18609 46.5433 4.31248 39.3282 6.2547 32.2689C6.40777 31.7127 6.49709 31.0702 6.75368 30.6213C7.3893 29.5091 7.65694 28.2255 8.4633 27.1864C8.89221 26.6336 8.96953 25.8386 9.49248 25.2657C10.9114 23.7113 11.7614 21.783 12.7861 19.964C14.3667 17.1586 15.981 14.3017 18.4954 12.2645C23.0104 8.6068 27.8284 5.37018 33.3815 3.55145C39.1283 1.66927 44.9336 1.43792 50.8133 3.19738C53.346 3.9555 55.9093 4.53355 58.1785 5.97675C59.3551 6.72526 60.4259 7.61476 61.4908 8.51163C62.7664 9.58698 64.1835 10.4694 65.3061 11.7579C66.8595 13.5414 68.3899 15.3274 69.7735 17.2583C71.2265 19.2866 73.4364 20.0059 75.7804 20.4674C78.6767 21.0371 81.6298 21.2822 84.4797 22.124C92.449 24.4775 98.71 29.1371 103.448 36.075C105.84 39.5763 107.862 43.2877 110.028 46.9162C112.061 50.323 113.833 53.8967 115.886 57.283C120.528 64.9347 120.582 73.1594 119.242 81.5953C118.647 85.3404 117.345 88.8888 115.936 92.4006C114.398 96.2361 113.02 100.134 110.785 103.644C106.765 109.958 101.61 114.917 94.6996 117.863C91.3722 119.281 88.0422 120.696 84.4831 121.388C80.9828 122.069 77.4717 122.226 73.9129 121.634C69.6198 120.92 65.4576 119.619 61.1755 118.872C60.3495 118.728 59.5264 118.675 58.6958 118.679C56.502 118.691 54.3057 118.393 52.117 118.619C49.47 118.893 46.8376 119.319 44.19 119.587C40.136 119.996 36.09 119.892 32.0326 119.437C28.2135 119.009 24.4748 118.244 20.7917 117.182C18.5945 116.549 16.4569 115.686 14.4838 114.536C13.5534 113.994 12.2903 113.754 11.8403 112.514C8.40554 110.419 6.86792 106.814 4.91938 103.539C4.06536 102.104 3.53072 100.513 2.83103 99.0062C2.26136 97.7793 2.29514 96.5015 2.04392 95.2604C1.35779 91.8748 1.17475 88.4168 0.909954 84.9761C0.56184 80.4533 0.452954 75.9196 0.355748 71.3734Z" fill="#E5EBF5"/>
<path d="M82.9375 51.1875H39.0625C37.1985 51.1875 35.6875 52.6985 35.6875 54.5625V84.9375C35.6875 86.8015 37.1985 88.3125 39.0625 88.3125H82.9375C84.8015 88.3125 86.3125 86.8015 86.3125 84.9375V54.5625C86.3125 52.6985 84.8015 51.1875 82.9375 51.1875Z" stroke="#253A57" stroke-width="2" stroke-linecap="round" stroke-linejoin="round"/>
<path d="M61 78.1875C65.6599 78.1875 69.4375 74.4099 69.4375 69.75C69.4375 65.0901 65.6599 61.3125 61 61.3125C56.3401 61.3125 52.5625 65.0901 52.5625 69.75C52.5625 74.4099 56.3401 78.1875 61 78.1875Z" fill="#253A57" stroke="#253A57" stroke-width="2" stroke-linecap="round" stroke-linejoin="round"/>
<path d="M42.4375 44.4375H79.5625" stroke="#253A57" stroke-width="2" stroke-linecap="round" stroke-linejoin="round"/>
<path d="M49.1875 37.6875H72.8125" stroke="#253A57" stroke-width="2" stroke-linecap="round" stroke-linejoin="round"/>
</svg>
