<svg width="120" height="124" viewBox="0 0 120 124" fill="none" xmlns="http://www.w3.org/2000/svg">
<path fill-rule="evenodd" clip-rule="evenodd" d="M49.5603 3.06525C49.5603 3.05104 49.5603 3.03652 49.5599 3.02232L46.9148 3.02232L46.9148 3.06525L49.5603 3.06525ZM51.8535 77.3597C50.9954 77.6251 50.2546 78.0947 49.5557 78.6379C50.4029 78.3532 51.1611 77.9139 51.8535 77.3597ZM3.31194 86.6501C3.24305 86.0735 3.68524 85.4414 3.09117 84.849C2.79574 85.5373 3.05496 86.0937 3.31194 86.6501ZM88.3327 43.8046C87.3772 44.2774 86.4672 44.7881 85.7049 45.5158C86.6633 45.0611 87.5467 44.492 88.3327 43.8046ZM23.0063 10.1183C24.0963 9.8466 25.1868 9.57487 26.2768 9.30313C25.1102 9.32933 23.9903 9.52753 23.0063 10.1183ZM108.43 58.3054C109.296 57.4728 110.002 56.0937 110.015 55.3646C109.449 56.4137 108.94 57.3595 108.43 58.3054ZM84.1796 97.2986C83.3888 98.0273 82.574 98.7229 82.0299 99.6489C83.0447 99.1244 83.6279 98.2179 84.1796 97.2986ZM110.484 63.3437C111.287 62.8921 111.816 62.2315 112.241 61.4848C112.308 61.3674 112.442 61.2475 112.285 61.1174C112.13 60.9893 112.01 61.1089 111.93 61.2235C111.443 61.927 110.965 62.6364 110.484 63.3437ZM41.2475 63.2689C40.1612 63.5504 39.2361 64.0753 38.4357 64.8097C39.5579 64.6096 40.3826 63.8894 41.2475 63.2689ZM38.207 92.1296C38.2406 92.2101 38.2743 92.2903 38.3079 92.3708L41.7839 90.9486C41.7557 90.8802 41.7268 90.8117 41.6983 90.7435C40.5791 91.3116 39.2637 91.4107 38.207 92.1296ZM112.781 54.4159C112.149 55.7945 111.517 57.173 110.885 58.5519C111.804 57.3021 112.496 55.9529 112.781 54.4159ZM94.3917 66.3198C95.261 65.1086 96.1306 63.8973 96.9999 62.686C95.8083 63.6625 94.9806 64.8927 94.3917 66.3198ZM84.6901 54.7144C84.7452 54.7848 84.8003 54.8549 84.8554 54.9253C86.1355 53.9529 87.3996 52.9625 88.4288 51.701C87.1824 52.7056 85.9362 53.7099 84.6901 54.7144ZM44.2281 66.8327C43.2101 66.953 40.0625 68.9539 39.413 69.7741C41.1007 68.7434 42.6644 67.788 44.2281 66.8327ZM41.5893 72.5006C43.3257 71.4572 45.0621 70.4139 46.7988 69.3708C46.7604 69.3092 46.7219 69.2477 46.6835 69.1858C44.849 70.0749 43.1325 71.1562 41.5893 72.5006ZM86.0779 39.4121C86.0369 39.3464 85.9958 39.2805 85.9548 39.2148C84.3364 39.7217 83.0742 40.801 81.7502 41.7819C81.7896 41.8454 81.8294 41.9085 81.8688 41.9719C83.2716 41.1185 84.6747 40.2651 86.0779 39.4121ZM61.9579 103.392C64.0973 102.681 68.0318 100.152 68.5323 99.1657C67.3679 99.9099 66.2705 100.56 65.231 101.29C64.1649 102.039 63.0326 102.68 61.9579 103.392ZM62.4174 117.823C61.1225 118.424 59.8126 118.95 58.4655 119.364C57.1371 119.772 55.7794 120.086 54.4346 120.441C57.4367 120.274 61.0274 119.085 62.4174 117.823ZM88.6003 49.2308C86.5976 50.7363 84.5267 52.1625 82.7964 53.9845C84.8587 52.5485 86.8834 51.0686 88.6003 49.2308ZM75.9957 99.2677C77.9295 97.8026 80.0058 96.4818 81.1821 94.2486C79.4778 95.9462 77.7186 97.5886 75.9957 99.2677ZM16.1223 107.247C14.6079 105.515 13.0125 103.869 11.1127 102.536C12.4822 104.411 14.2241 105.91 16.1223 107.247ZM53.9578 68.2952C55.9044 67.7833 60.4839 64.9593 61.384 63.7114C58.8786 65.2579 56.4975 66.7273 53.9578 68.2952ZM104.706 58.4061C103.458 58.7286 100.515 62.3742 100.284 63.8689C102.058 62.1488 103.248 60.169 104.706 58.4061ZM84.08 84.4049C81.8825 87.0096 79.1724 89.1484 77.1188 91.8677C79.919 89.8046 82.1927 87.2706 84.08 84.4049ZM80.8005 52.7669C80.894 52.883 80.9876 52.9992 81.0808 53.115C83.7461 51.1415 86.4121 49.169 88.7752 46.8209C85.8481 48.4652 83.3924 50.7016 80.8005 52.7669ZM94.1644 38.6565C90.7778 40.8348 87.2436 42.8011 84.0486 45.6727C87.8979 43.9218 93.5338 40.0376 94.1644 38.6565ZM50.6266 2.35576C43.8012 2.27907 36.98 2.63223 30.17 3.26912C30.1643 3.2 30.1585 3.13057 30.1527 3.06145C31.5514 2.93016 32.9513 2.80992 34.3487 2.66569C38.6677 2.22069 43.0043 2.12315 47.34 2.01206C50.551 1.93001 53.7184 2.2696 56.8589 2.94152C60.5899 3.74 64.3966 4.001 68.1834 4.40687C75.4567 5.1861 82.6717 6.31248 89.731 8.2547C90.2873 8.40777 90.9298 8.4971 91.3787 8.75368C92.4909 9.38931 93.7745 9.65694 94.8136 10.4633C95.3664 10.8922 96.1613 10.9695 96.7343 11.4925C98.2886 12.9114 100.217 13.7614 102.036 14.7861C104.841 16.3667 107.698 17.981 109.736 20.4954C113.393 25.0104 116.63 29.8284 118.449 35.3815C120.331 41.1283 120.562 46.9336 118.803 52.8133C118.044 55.346 117.466 57.9093 116.023 60.1785C115.275 61.3551 114.385 62.4259 113.488 63.4908C112.413 64.7664 111.531 66.1835 110.242 67.3061C108.459 68.8595 106.673 70.3899 104.742 71.7735C102.713 73.2265 101.994 75.4364 101.533 77.7804C100.963 80.6767 100.718 83.6298 99.876 86.4797C97.5225 94.449 92.8629 100.71 85.925 105.448C82.4237 107.84 78.7123 109.862 75.0838 112.028C71.677 114.061 68.1033 115.833 64.717 117.886C57.0653 122.528 48.8406 122.582 40.4047 121.242C36.6596 120.647 33.1112 119.345 29.5993 117.936C25.7639 116.398 21.8659 115.02 18.3559 112.785C12.0416 108.765 7.08273 103.61 4.13705 96.6996C2.71853 93.3722 1.30449 90.0422 0.612363 86.4832C-0.0685383 82.9828 -0.225872 79.4717 0.365955 75.913C1.07987 71.6198 2.3808 67.4576 3.12771 63.1755C3.27158 62.3496 3.32508 61.5265 3.3206 60.6958C3.30938 58.502 3.60738 56.3057 3.38084 54.117C3.10655 51.4701 2.68135 48.8376 2.41348 46.19C2.00366 42.1361 2.10812 38.09 2.5628 34.0326C2.99057 30.2135 3.75639 26.4748 4.81795 22.7918C5.45144 20.5945 6.31434 18.4569 7.46435 16.4838C8.00619 15.5534 8.24554 14.2903 9.48591 13.8403C11.5805 10.4056 15.186 8.86794 18.4607 6.9194C19.8962 6.06537 21.4874 5.53073 22.9938 4.83104C24.2207 4.26138 25.4985 4.29515 26.7395 4.04393C30.1252 3.3578 33.5832 3.17476 37.0239 2.90997C41.5467 2.56185 46.0804 2.45296 50.6266 2.35576Z" fill="#F3EEEB"/>
<path d="M35.6875 54.5625H86.3125" stroke="#514D4D" stroke-width="2" stroke-linecap="round" stroke-linejoin="round"/>
<path d="M86.3125 54.5625V47.8125C86.3125 46.9174 85.9569 46.0589 85.324 45.426C84.691 44.7931 83.8326 44.4375 82.9375 44.4375H39.0625C38.1674 44.4375 37.3089 44.7931 36.676 45.426C36.0431 46.0589 35.6875 46.9174 35.6875 47.8125V84.9375C35.6875 85.8326 36.0431 86.691 36.676 87.324C37.3089 87.9569 38.1674 88.3125 39.0625 88.3125H55.9375" stroke="#514D4D" stroke-width="2" stroke-linecap="round" stroke-linejoin="round"/>
<path d="M49.1875 37.6875V44.4375" stroke="#514D4D" stroke-width="2" stroke-linecap="round" stroke-linejoin="round"/>
<path d="M72.8125 37.6875V44.4375" stroke="#514D4D" stroke-width="2" stroke-linecap="round" stroke-linejoin="round"/>
<path d="M72.8125 88.3125C80.2683 88.3125 86.3125 82.2683 86.3125 74.8125C86.3125 67.3567 80.2683 61.3125 72.8125 61.3125C65.3567 61.3125 59.3125 67.3567 59.3125 74.8125C59.3125 82.2683 65.3567 88.3125 72.8125 88.3125Z" fill="#514D4D" stroke="#514D4D" stroke-width="2" stroke-linecap="round" stroke-linejoin="round"/>
<path d="M72.8125 68.0625V74.8125H79.5625" stroke="white" stroke-width="2" stroke-linecap="round" stroke-linejoin="round"/>
</svg>
