<svg width="128" height="21" viewBox="0 0 128 21" fill="none" xmlns="http://www.w3.org/2000/svg">
<path fill-rule="evenodd" clip-rule="evenodd" d="M32.4456 16.8614L31.4151 19.6624H27.5161L35.7319 0H36.0104L44.2541 19.6624H40.4664L39.3803 16.8614H32.4456ZM6.90688 20.023C8.94923 20.023 10.5785 19.4614 11.7946 18.3382C13.0107 17.215 13.6188 15.3546 13.6188 12.757V0.332782H9.99826V13.1453C9.99826 14.6243 9.69191 15.6366 9.0792 16.182C8.46649 16.7274 7.72382 17.0001 6.85117 17.0001C5.98781 17.0001 5.23354 16.7228 4.58834 16.1681C3.94314 15.6135 3.62054 14.6058 3.62054 13.1453V0.332782H0V12.757C0 15.3546 0.624311 17.215 1.87293 18.3382C3.12155 19.4614 4.79954 20.023 6.90688 20.023ZM19.4674 20.0784C21.5283 20.0784 23.009 19.5168 23.9095 18.3937C24.81 17.2705 25.2602 15.7614 25.2602 13.8663V0.332782H21.6397V14.1991C21.6397 15.0126 21.5283 15.625 21.3055 16.0364C21.0827 16.4478 20.8088 16.7112 20.4839 16.8268C20.159 16.9423 19.7644 17.0001 19.3002 17.0001C18.9289 17.0001 18.5599 16.9007 18.1932 16.702C17.8265 16.5032 17.5271 16.2328 17.295 15.8908L15.9582 19.191C16.2831 19.4221 16.8193 19.6278 17.5666 19.808C18.3139 19.9883 18.9475 20.0784 19.4674 20.0784ZM38.3499 14.1714H33.4482L35.3977 8.9022L35.8433 7.34917L36.3168 8.9022L38.3499 14.1714ZM50.2697 11.3704V19.6624H46.8163V0H47.0948L54.9486 9.2211L62.7467 0H63.053V19.6624H59.5996V11.3704L59.7249 8.09793L58.7362 9.59549L54.9207 14.0604L51.1052 9.59549L50.1166 8.09793L50.2697 11.3704ZM69.5144 19.6624L70.5448 16.8614H77.4795L78.5657 19.6624H82.1028L82.2278 19.3631L82.3533 19.6624H86.0018L87.0323 16.8614H93.967L95.0532 19.6624H98.8408L90.5971 0H90.3186L82.2278 19.3631L74.1097 0H73.8312L65.6153 19.6624H69.5144ZM71.5474 14.1714H76.449L74.4159 8.9022L73.9425 7.34917L73.4969 8.9022L71.5474 14.1714ZM88.0348 14.1714H92.9365L90.9034 8.9022L90.4299 7.34917L89.9843 8.9022L88.0348 14.1714ZM103.659 19.6624V15.5303H100.4V19.6624H103.659ZM110.148 16.8614L109.117 19.6624H105.218L113.434 0H113.713L121.956 19.6624H118.169L117.083 16.8614H110.148ZM116.052 14.1714H111.151L113.1 8.9022L113.546 7.34917L114.019 8.9022L116.052 14.1714ZM128 0.332782V19.6624H124.435V0.332782H128Z" fill="#5376BC"/>
</svg>